<svg width="170" height="201" viewBox="0 0 170 201" fill="none" xmlns="http://www.w3.org/2000/svg">
<g filter="url(#filter0_f_300_395)">
<rect x="33" y="64" width="73" height="73" rx="36.5" fill="#FACC15" fill-opacity="0.2"/>
</g>
<g filter="url(#filter1_dd_300_395)">
<path d="M66.3333 74V64H73V74H66.3333ZM66.3333 137.333V127.333H73V137.333H66.3333ZM96.3333 104V97.3333H106.333V104H96.3333ZM33 104V97.3333H43V104H33ZM92 83L87.3333 78.3333L93.1667 72.3333L98 77.1667L92 83ZM46.1667 129L41.3333 124.167L47.3333 118.333L52 123L46.1667 129ZM93.1667 129L87.3333 123L92 118.333L98 124.167L93.1667 129ZM47.3333 83L41.3333 77.1667L46.1667 72.3333L52 78.3333L47.3333 83ZM69.6667 120.667C64.1111 120.667 59.3889 118.722 55.5 114.833C51.6111 110.944 49.6667 106.222 49.6667 100.667C49.6667 95.1111 51.6111 90.3889 55.5 86.5C59.3889 82.6111 64.1111 80.6667 69.6667 80.6667C75.2222 80.6667 79.9444 82.6111 83.8333 86.5C87.7222 90.3889 89.6667 95.1111 89.6667 100.667C89.6667 106.222 87.7222 110.944 83.8333 114.833C79.9444 118.722 75.2222 120.667 69.6667 120.667Z" fill="#EAB308"/>
</g>
<defs>
<filter id="filter0_f_300_395" x="-31" y="0" width="201" height="201" filterUnits="userSpaceOnUse" color-interpolation-filters="sRGB">
<feFlood flood-opacity="0" result="BackgroundImageFix"/>
<feBlend mode="normal" in="SourceGraphic" in2="BackgroundImageFix" result="shape"/>
<feGaussianBlur stdDeviation="32" result="effect1_foregroundBlur_300_395"/>
</filter>
<filter id="filter1_dd_300_395" x="25" y="64" width="89.3334" height="91.3333" filterUnits="userSpaceOnUse" color-interpolation-filters="sRGB">
<feFlood flood-opacity="0" result="BackgroundImageFix"/>
<feColorMatrix in="SourceAlpha" type="matrix" values="0 0 0 0 0 0 0 0 0 0 0 0 0 0 0 0 0 0 127 0" result="hardAlpha"/>
<feOffset dy="10"/>
<feGaussianBlur stdDeviation="4"/>
<feComposite in2="hardAlpha" operator="out"/>
<feColorMatrix type="matrix" values="0 0 0 0 0 0 0 0 0 0 0 0 0 0 0 0 0 0 0.04 0"/>
<feBlend mode="normal" in2="BackgroundImageFix" result="effect1_dropShadow_300_395"/>
<feColorMatrix in="SourceAlpha" type="matrix" values="0 0 0 0 0 0 0 0 0 0 0 0 0 0 0 0 0 0 127 0" result="hardAlpha"/>
<feOffset dy="4"/>
<feGaussianBlur stdDeviation="1.5"/>
<feComposite in2="hardAlpha" operator="out"/>
<feColorMatrix type="matrix" values="0 0 0 0 0 0 0 0 0 0 0 0 0 0 0 0 0 0 0.1 0"/>
<feBlend mode="normal" in2="effect1_dropShadow_300_395" result="effect2_dropShadow_300_395"/>
<feBlend mode="normal" in="SourceGraphic" in2="effect2_dropShadow_300_395" result="shape"/>
</filter>
</defs>
</svg>
