<svg width="60" height="60" viewBox="0 0 60 60" fill="none" xmlns="http://www.w3.org/2000/svg">
<path d="M30.0001 41.25C23.7751 41.25 18.7501 36.225 18.7501 30C18.7501 23.775 23.7751 18.75 30.0001 18.75C36.2251 18.75 41.2501 23.775 41.2501 30C41.2501 36.225 36.2251 41.25 30.0001 41.25ZM30.0001 11.25C28.9751 11.25 28.1251 10.4 28.1251 9.375V3.75C28.1251 2.725 28.9751 1.875 30.0001 1.875C31.0251 1.875 31.8751 2.725 31.8751 3.75V9.375C31.8751 10.4 31.0251 11.25 30.0001 11.25ZM30.0001 58.125C28.9751 58.125 28.1251 57.275 28.1251 56.25V50.625C28.1251 49.6 28.9751 48.75 30.0001 48.75C31.0251 48.75 31.8751 49.6 31.8751 50.625V56.25C31.8751 57.275 31.0251 58.125 30.0001 58.125ZM48.7501 30C48.7501 28.975 49.6001 28.125 50.6251 28.125H56.2501C57.2751 28.125 58.1251 28.975 58.1251 30C58.1251 31.025 57.2751 31.875 56.2501 31.875H50.6251C49.6001 31.875 48.7501 31.025 48.7501 30ZM1.87508 30C1.87508 28.975 2.72508 28.125 3.75008 28.125H9.37508C10.4001 28.125 11.2501 28.975 11.2501 30C11.2501 31.025 10.4001 31.875 9.37508 31.875H3.75008C2.72508 31.875 1.87508 31.025 1.87508 30ZM43.2501 18.075C42.7751 18.075 42.2751 17.875 41.9251 17.525C41.2001 16.8 41.2001 15.6 41.9251 14.875L45.9001 10.9C46.6251 10.175 47.8251 10.175 48.5501 10.9C49.2751 11.625 49.2751 12.825 48.5501 13.55L44.5751 17.525C44.2001 17.875 43.7251 18.075 43.2501 18.075ZM11.4501 49.9C10.9751 49.9 10.4751 49.7 10.1251 49.35C9.40008 48.625 9.40008 47.425 10.1251 46.7L14.1001 42.725C14.8251 42 16.0251 42 16.7501 42.725C17.4751 43.45 17.4751 44.65 16.7501 45.375L12.7751 49.35C12.4001 49.7 11.9251 49.9 11.4501 49.9ZM16.7501 18.075C16.2751 18.075 15.7751 17.875 15.4251 17.525L11.4501 13.55C10.7251 12.825 10.7251 11.625 11.4501 10.9C12.1751 10.175 13.3751 10.175 14.1001 10.9L18.0751 14.875C18.8001 15.6 18.8001 16.8 18.0751 17.525C17.7001 17.875 17.2251 18.075 16.7501 18.075ZM48.5501 49.9C48.0751 49.9 47.5751 49.7 47.2251 49.35L43.2501 45.375C42.5251 44.65 42.5251 43.45 43.2501 42.725C43.9751 42 45.1751 42 45.9001 42.725L49.8751 46.7C50.6001 47.425 50.6001 48.625 49.8751 49.35C49.5001 49.7 49.0251 49.9 48.5501 49.9Z" fill="#FDB813"/>
</svg>