<svg width="164" height="195" viewBox="0 0 164 195" fill="none" xmlns="http://www.w3.org/2000/svg">
<g filter="url(#filter0_f_300_786)">
<rect x="33" y="64" width="67" height="67" rx="33.5" fill="#0C5252" fill-opacity="0.1"/>
</g>
<g filter="url(#filter1_dd_300_786)">
<path d="M72.8333 130.333C72 130.778 71.1528 130.847 70.2917 130.542C69.4306 130.236 68.7778 129.667 68.3333 128.833L63.3333 118.833C62.8889 118 62.8194 117.153 63.125 116.292C63.4306 115.431 64 114.778 64.8333 114.333C65.6667 113.889 66.5139 113.819 67.375 114.125C68.2361 114.431 68.8889 115 69.3333 115.833L74.3333 125.833C74.7778 126.667 74.8472 127.514 74.5417 128.375C74.2361 129.236 73.6667 129.889 72.8333 130.333ZM92.8333 130.333C92 130.778 91.1528 130.847 90.2917 130.542C89.4306 130.236 88.7778 129.667 88.3333 128.833L83.3333 118.833C82.8889 118 82.8194 117.153 83.125 116.292C83.4306 115.431 84 114.778 84.8333 114.333C85.6667 113.889 86.5139 113.819 87.375 114.125C88.2361 114.431 88.8889 115 89.3333 115.833L94.3333 125.833C94.7778 126.667 94.8472 127.514 94.5417 128.375C94.2361 129.236 93.6667 129.889 92.8333 130.333ZM52.8333 130.333C52 130.778 51.1528 130.847 50.2917 130.542C49.4306 130.236 48.7778 129.667 48.3333 128.833L43.3333 118.833C42.8889 118 42.8194 117.153 43.125 116.292C43.4306 115.431 44 114.778 44.8333 114.333C45.6667 113.889 46.5139 113.819 47.375 114.125C48.2361 114.431 48.8889 115 49.3333 115.833L54.3333 125.833C54.7778 126.667 54.8472 127.514 54.5417 128.375C54.2361 129.236 53.6667 129.889 52.8333 130.333ZM51.3333 110.667C46.2778 110.667 41.9583 108.875 38.375 105.292C34.7917 101.708 33 97.3889 33 92.3333C33 87.7222 34.5278 83.6944 37.5833 80.25C40.6389 76.8056 44.4167 74.7778 48.9167 74.1667C50.6944 71 53.125 68.5139 56.2083 66.7083C59.2917 64.9028 62.6667 64 66.3333 64C71.3333 64 75.6806 65.5972 79.375 68.7917C83.0694 71.9861 85.3056 75.9722 86.0833 80.75C89.9167 81.0833 93.1389 82.6667 95.75 85.5C98.3611 88.3333 99.6667 91.7222 99.6667 95.6667C99.6667 99.8333 98.2083 103.375 95.2917 106.292C92.375 109.208 88.8333 110.667 84.6667 110.667H51.3333Z" fill="#94A3B8"/>
</g>
<defs>
<filter id="filter0_f_300_786" x="-31" y="0" width="195" height="195" filterUnits="userSpaceOnUse" color-interpolation-filters="sRGB">
<feFlood flood-opacity="0" result="BackgroundImageFix"/>
<feBlend mode="normal" in="SourceGraphic" in2="BackgroundImageFix" result="shape"/>
<feGaussianBlur stdDeviation="32" result="effect1_foregroundBlur_300_786"/>
</filter>
<filter id="filter1_dd_300_786" x="25" y="64" width="82.6666" height="84.7285" filterUnits="userSpaceOnUse" color-interpolation-filters="sRGB">
<feFlood flood-opacity="0" result="BackgroundImageFix"/>
<feColorMatrix in="SourceAlpha" type="matrix" values="0 0 0 0 0 0 0 0 0 0 0 0 0 0 0 0 0 0 127 0" result="hardAlpha"/>
<feOffset dy="10"/>
<feGaussianBlur stdDeviation="4"/>
<feComposite in2="hardAlpha" operator="out"/>
<feColorMatrix type="matrix" values="0 0 0 0 0 0 0 0 0 0 0 0 0 0 0 0 0 0 0.04 0"/>
<feBlend mode="normal" in2="BackgroundImageFix" result="effect1_dropShadow_300_786"/>
<feColorMatrix in="SourceAlpha" type="matrix" values="0 0 0 0 0 0 0 0 0 0 0 0 0 0 0 0 0 0 127 0" result="hardAlpha"/>
<feOffset dy="4"/>
<feGaussianBlur stdDeviation="1.5"/>
<feComposite in2="hardAlpha" operator="out"/>
<feColorMatrix type="matrix" values="0 0 0 0 0 0 0 0 0 0 0 0 0 0 0 0 0 0 0.1 0"/>
<feBlend mode="normal" in2="effect1_dropShadow_300_786" result="effect2_dropShadow_300_786"/>
<feBlend mode="normal" in="SourceGraphic" in2="effect2_dropShadow_300_786" result="shape"/>
</filter>
</defs>
</svg>
