<svg width="100" height="100" viewBox="0 0 100 100" fill="none" xmlns="http://www.w3.org/2000/svg">
<path d="M50 100C43.9167 99.25 37.875 97.6042 31.875 95.0625C25.875 92.5208 20.5208 88.875 15.8125 84.125C11.1042 79.375 7.29167 73.375 4.375 66.125C1.45833 58.875 0 50.1667 0 40V35H5C9.25 35 13.625 35.5417 18.125 36.625C22.625 37.7083 26.8333 39.3333 30.75 41.5C31.75 34.3333 34.0208 26.9792 37.5625 19.4375C41.1042 11.8958 45.25 5.41667 50 0C54.75 5.41667 58.8958 11.8958 62.4375 19.4375C65.9792 26.9792 68.25 34.3333 69.25 41.5C73.1667 39.3333 77.375 37.7083 81.875 36.625C86.375 35.5417 90.75 35 95 35H100V40C100 50.1667 98.5417 58.875 95.625 66.125C92.7083 73.375 88.8958 79.375 84.1875 84.125C79.4792 88.875 74.1458 92.5208 68.1875 95.0625C62.2292 97.6042 56.1667 99.25 50 100ZM49.75 89.75C48.8333 75.9167 44.7292 65.4583 37.4375 58.375C30.1458 51.2917 21.0833 46.9167 10.25 45.25C11.1667 59.5 15.3958 70.125 22.9375 77.125C30.4792 84.125 39.4167 88.3333 49.75 89.75ZM50 58C51.25 56.1667 52.7708 54.2708 54.5625 52.3125C56.3542 50.3542 58.0833 48.6667 59.75 47.25C59.5833 42.5 58.6458 37.5417 56.9375 32.375C55.2292 27.2083 52.9167 22.1667 50 17.25C47.0833 22.1667 44.7708 27.2083 43.0625 32.375C41.3542 37.5417 40.4167 42.5 40.25 47.25C41.9167 48.6667 43.6667 50.3542 45.5 52.3125C47.3333 54.2708 48.8333 56.1667 50 58ZM59.75 87.5C62.8333 86.5 66.0417 85.0417 69.375 83.125C72.7083 81.2083 75.8125 78.6042 78.6875 75.3125C81.5625 72.0208 84.0208 67.9167 86.0625 63C88.1042 58.0833 89.3333 52.1667 89.75 45.25C81.9167 46.4167 75.0417 49.0208 69.125 53.0625C63.2083 57.1042 58.6667 62.25 55.5 68.5C56.5 71.1667 57.3542 74.0833 58.0625 77.25C58.7708 80.4167 59.3333 83.8333 59.75 87.5Z" fill="#0C5252"/>
</svg>
